<svg width="1200" height="700" viewBox="0 0 1200 700" xmlns="http://www.w3.org/2000/svg">
  <rect width="1200" height="700" fill="#f8fafc"/>
  <text x="60" y="80" font-size="48" font-family="Arial" fill="#0f172a" font-weight="700">Character Creation Flow (8 Steps)</text>
  <g font-family="Arial" font-size="20" font-weight="700" fill="#0f172a">
    <rect x="70" y="140" width="125" height="80" rx="14" fill="#dbeafe"/><text x="110" y="188">Race</text>
    <rect x="220" y="140" width="125" height="80" rx="14" fill="#dbeafe"/><text x="257" y="188">Class</text>
    <rect x="370" y="140" width="125" height="80" rx="14" fill="#dbeafe"/><text x="409" y="188">Stats</text>
    <rect x="520" y="140" width="125" height="80" rx="14" fill="#dbeafe"/><text x="559" y="188">Skills</text>
    <rect x="670" y="140" width="125" height="80" rx="14" fill="#dbeafe"/><text x="696" y="188">Traits</text>
    <rect x="820" y="140" width="125" height="80" rx="14" fill="#dbeafe"/><text x="845" y="188">Backstory</text>
    <rect x="970" y="140" width="125" height="80" rx="14" fill="#dbeafe"/><text x="996" y="188">Party</text>
  </g>
  <rect x="70" y="270" width="1060" height="360" rx="22" fill="#ffffff" stroke="#cbd5e1"/>
  <text x="110" y="340" font-size="34" font-family="Arial" fill="#1e293b" font-weight="700">Live Character Summary</text>
  <text x="110" y="390" font-size="24" font-family="Arial" fill="#334155">• Point-buy stat allocator with racial bonuses</text>
  <text x="110" y="430" font-size="24" font-family="Arial" fill="#334155">• Class-based skill recommendations</text>
  <text x="110" y="470" font-size="24" font-family="Arial" fill="#334155">• Companion personalities and party setup</text>
  <text x="110" y="510" font-size="24" font-family="Arial" fill="#334155">• Final review before entering adventure selection</text>
  <rect x="820" y="530" width="250" height="64" rx="12" fill="#2563eb"/>
  <text x="850" y="571" font-size="28" font-family="Arial" fill="#eff6ff" font-weight="700">Begin Adventure</text>
</svg>
