<svg width="1200" height="700" viewBox="0 0 1200 700" xmlns="http://www.w3.org/2000/svg">
  <rect width="1200" height="700" fill="#0b1220"/>
  <rect x="0" y="0" width="1200" height="80" fill="#111827"/>
  <text x="40" y="50" font-size="32" font-family="Arial" fill="#f8fafc" font-weight="700">Game Interface</text>
  <rect x="20" y="100" width="820" height="580" rx="16" fill="#111827" stroke="#334155"/>
  <text x="50" y="145" font-size="24" font-family="Arial" fill="#93c5fd">Chat Timeline</text>
  <rect x="45" y="170" width="740" height="70" rx="12" fill="#1e293b"/>
  <rect x="90" y="255" width="620" height="75" rx="12" fill="#334155"/>
  <rect x="45" y="350" width="740" height="100" rx="12" fill="#1e293b"/>
  <text x="60" y="402" font-size="20" font-family="Arial" fill="#e2e8f0">DM narration, dice outcomes, companion reactions</text>
  <rect x="45" y="470" width="500" height="44" rx="22" fill="#0f172a" stroke="#334155"/>
  <text x="70" y="499" font-size="18" font-family="Arial" fill="#94a3b8">Filters: All • DM • Player • Companions • Rolls</text>
  <rect x="45" y="550" width="620" height="90" rx="12" fill="#0f172a" stroke="#334155"/>
  <text x="70" y="602" font-size="22" font-family="Arial" fill="#f8fafc">What do you do?</text>
  <rect x="860" y="100" width="320" height="580" rx="16" fill="#111827" stroke="#334155"/>
  <text x="890" y="145" font-size="24" font-family="Arial" fill="#86efac">Sidebar Panels</text>
  <text x="890" y="200" font-size="20" font-family="Arial" fill="#cbd5e1">• Character Sheet</text>
  <text x="890" y="240" font-size="20" font-family="Arial" fill="#cbd5e1">• Inventory</text>
  <text x="890" y="280" font-size="20" font-family="Arial" fill="#cbd5e1">• Dice Roller</text>
  <text x="890" y="350" font-size="20" font-family="Arial" fill="#cbd5e1">Party companions and status</text>
</svg>
